%TF.GenerationSoftware,KiCad,Pcbnew,7.0.8*%
%TF.CreationDate,2023-12-01T15:01:35+01:00*%
%TF.ProjectId,briquet-rounded,62726971-7565-4742-9d72-6f756e646564,rev?*%
%TF.SameCoordinates,Original*%
%TF.FileFunction,Profile,NP*%
%FSLAX46Y46*%
G04 Gerber Fmt 4.6, Leading zero omitted, Abs format (unit mm)*
G04 Created by KiCad (PCBNEW 7.0.8) date 2023-12-01 15:01:35*
%MOMM*%
%LPD*%
G01*
G04 APERTURE LIST*
%TA.AperFunction,Profile*%
%ADD10C,0.100000*%
%TD*%
%TA.AperFunction,Profile*%
%ADD11C,0.050000*%
%TD*%
G04 APERTURE END LIST*
D10*
X181475000Y-40575000D02*
X181475000Y-92775000D01*
X85225000Y-40575000D02*
X85225000Y-92775000D01*
X88200000Y-95750000D02*
X178500000Y-95750000D01*
X181475000Y-40575000D02*
G75*
G03*
X178500000Y-37600000I-2975000J0D01*
G01*
X88200000Y-37600000D02*
X178500000Y-37600000D01*
X178500000Y-95750000D02*
G75*
G03*
X181475000Y-92775000I0J2975000D01*
G01*
X88200000Y-37600000D02*
G75*
G03*
X85225000Y-40575000I0J-2975000D01*
G01*
X85225000Y-92775000D02*
G75*
G03*
X88200000Y-95750000I2975000J0D01*
G01*
D11*
%TO.C,LED14*%
X154075000Y-91637502D02*
X154075000Y-89337502D01*
X153750000Y-89012502D02*
X151050000Y-89012502D01*
X151050000Y-91962502D02*
X153750000Y-91962502D01*
X150725000Y-89337502D02*
X150725000Y-91637502D01*
X154075000Y-89337502D02*
G75*
G03*
X153750000Y-89012502I-325002J-2D01*
G01*
X153750000Y-91962502D02*
G75*
G03*
X154075000Y-91637502I-2J325002D01*
G01*
X151050000Y-89012502D02*
G75*
G03*
X150725000Y-89337502I0J-325000D01*
G01*
X150725000Y-91637502D02*
G75*
G03*
X151050000Y-91962502I325000J0D01*
G01*
%TO.C,LED5*%
X173125000Y-53537500D02*
X173125000Y-51237500D01*
X172800000Y-50912500D02*
X170100000Y-50912500D01*
X170100000Y-53862500D02*
X172800000Y-53862500D01*
X169775000Y-51237500D02*
X169775000Y-53537500D01*
X173125000Y-51237500D02*
G75*
G03*
X172800000Y-50912500I-325002J-2D01*
G01*
X172800000Y-53862500D02*
G75*
G03*
X173125000Y-53537500I-2J325002D01*
G01*
X170100000Y-50912500D02*
G75*
G03*
X169775000Y-51237500I0J-325000D01*
G01*
X169775000Y-53537500D02*
G75*
G03*
X170100000Y-53862500I325000J0D01*
G01*
%TO.C,LED15*%
X173125000Y-91637502D02*
X173125000Y-89337502D01*
X172800000Y-89012502D02*
X170100000Y-89012502D01*
X170100000Y-91962502D02*
X172800000Y-91962502D01*
X169775000Y-89337502D02*
X169775000Y-91637502D01*
X173125000Y-89337502D02*
G75*
G03*
X172800000Y-89012502I-325002J-2D01*
G01*
X172800000Y-91962502D02*
G75*
G03*
X173125000Y-91637502I-2J325002D01*
G01*
X170100000Y-89012502D02*
G75*
G03*
X169775000Y-89337502I0J-325000D01*
G01*
X169775000Y-91637502D02*
G75*
G03*
X170100000Y-91962502I325000J0D01*
G01*
%TO.C,LED1*%
X96925000Y-53537500D02*
X96925000Y-51237500D01*
X96600000Y-50912500D02*
X93900000Y-50912500D01*
X93900000Y-53862500D02*
X96600000Y-53862500D01*
X93575000Y-51237500D02*
X93575000Y-53537500D01*
X96925000Y-51237500D02*
G75*
G03*
X96600000Y-50912500I-325002J-2D01*
G01*
X96600000Y-53862500D02*
G75*
G03*
X96925000Y-53537500I-2J325002D01*
G01*
X93900000Y-50912500D02*
G75*
G03*
X93575000Y-51237500I0J-325000D01*
G01*
X93575000Y-53537500D02*
G75*
G03*
X93900000Y-53862500I325000J0D01*
G01*
%TO.C,LED11*%
X96925560Y-91638032D02*
X96925560Y-89338032D01*
X96600560Y-89013032D02*
X93900560Y-89013032D01*
X93900560Y-91963032D02*
X96600560Y-91963032D01*
X93575560Y-89338032D02*
X93575560Y-91638032D01*
X96925560Y-89338032D02*
G75*
G03*
X96600560Y-89013032I-325002J-2D01*
G01*
X96600560Y-91963032D02*
G75*
G03*
X96925560Y-91638032I-2J325002D01*
G01*
X93900560Y-89013032D02*
G75*
G03*
X93575560Y-89338032I0J-325000D01*
G01*
X93575560Y-91638032D02*
G75*
G03*
X93900560Y-91963032I325000J0D01*
G01*
%TO.C,LED7*%
X150725000Y-70287502D02*
X150725000Y-72587502D01*
X151050000Y-72912502D02*
X153750000Y-72912502D01*
X153750000Y-69962502D02*
X151050000Y-69962502D01*
X154075000Y-72587502D02*
X154075000Y-70287502D01*
X150725000Y-72587502D02*
G75*
G03*
X151050000Y-72912502I325002J2D01*
G01*
X151050000Y-69962502D02*
G75*
G03*
X150725000Y-70287502I2J-325002D01*
G01*
X153750000Y-72912502D02*
G75*
G03*
X154075000Y-72587502I0J325000D01*
G01*
X154075000Y-70287502D02*
G75*
G03*
X153750000Y-69962502I-325000J0D01*
G01*
%TO.C,LED6*%
X169775000Y-70287502D02*
X169775000Y-72587502D01*
X170100000Y-72912502D02*
X172800000Y-72912502D01*
X172800000Y-69962502D02*
X170100000Y-69962502D01*
X173125000Y-72587502D02*
X173125000Y-70287502D01*
X169775000Y-72587502D02*
G75*
G03*
X170100000Y-72912502I325002J2D01*
G01*
X170100000Y-69962502D02*
G75*
G03*
X169775000Y-70287502I2J-325002D01*
G01*
X172800000Y-72912502D02*
G75*
G03*
X173125000Y-72587502I0J325000D01*
G01*
X173125000Y-70287502D02*
G75*
G03*
X172800000Y-69962502I-325000J0D01*
G01*
%TO.C,LED10*%
X93575000Y-70287502D02*
X93575000Y-72587502D01*
X93900000Y-72912502D02*
X96600000Y-72912502D01*
X96600000Y-69962502D02*
X93900000Y-69962502D01*
X96925000Y-72587502D02*
X96925000Y-70287502D01*
X93575000Y-72587502D02*
G75*
G03*
X93900000Y-72912502I325002J2D01*
G01*
X93900000Y-69962502D02*
G75*
G03*
X93575000Y-70287502I2J-325002D01*
G01*
X96600000Y-72912502D02*
G75*
G03*
X96925000Y-72587502I0J325000D01*
G01*
X96925000Y-70287502D02*
G75*
G03*
X96600000Y-69962502I-325000J0D01*
G01*
%TO.C,LED4*%
X154075000Y-53537500D02*
X154075000Y-51237500D01*
X153750000Y-50912500D02*
X151050000Y-50912500D01*
X151050000Y-53862500D02*
X153750000Y-53862500D01*
X150725000Y-51237500D02*
X150725000Y-53537500D01*
X154075000Y-51237500D02*
G75*
G03*
X153750000Y-50912500I-325002J-2D01*
G01*
X153750000Y-53862500D02*
G75*
G03*
X154075000Y-53537500I-2J325002D01*
G01*
X151050000Y-50912500D02*
G75*
G03*
X150725000Y-51237500I0J-325000D01*
G01*
X150725000Y-53537500D02*
G75*
G03*
X151050000Y-53862500I325000J0D01*
G01*
%TO.C,LED8*%
X131675000Y-70287502D02*
X131675000Y-72587502D01*
X132000000Y-72912502D02*
X134700000Y-72912502D01*
X134700000Y-69962502D02*
X132000000Y-69962502D01*
X135025000Y-72587502D02*
X135025000Y-70287502D01*
X131675000Y-72587502D02*
G75*
G03*
X132000000Y-72912502I325002J2D01*
G01*
X132000000Y-69962502D02*
G75*
G03*
X131675000Y-70287502I2J-325002D01*
G01*
X134700000Y-72912502D02*
G75*
G03*
X135025000Y-72587502I0J325000D01*
G01*
X135025000Y-70287502D02*
G75*
G03*
X134700000Y-69962502I-325000J0D01*
G01*
%TO.C,LED3*%
X135025000Y-53537500D02*
X135025000Y-51237500D01*
X134700000Y-50912500D02*
X132000000Y-50912500D01*
X132000000Y-53862500D02*
X134700000Y-53862500D01*
X131675000Y-51237500D02*
X131675000Y-53537500D01*
X135025000Y-51237500D02*
G75*
G03*
X134700000Y-50912500I-325002J-2D01*
G01*
X134700000Y-53862500D02*
G75*
G03*
X135025000Y-53537500I-2J325002D01*
G01*
X132000000Y-50912500D02*
G75*
G03*
X131675000Y-51237500I0J-325000D01*
G01*
X131675000Y-53537500D02*
G75*
G03*
X132000000Y-53862500I325000J0D01*
G01*
%TO.C,LED12*%
X115975672Y-91638032D02*
X115975672Y-89338032D01*
X115650672Y-89013032D02*
X112950672Y-89013032D01*
X112950672Y-91963032D02*
X115650672Y-91963032D01*
X112625672Y-89338032D02*
X112625672Y-91638032D01*
X115975672Y-89338032D02*
G75*
G03*
X115650672Y-89013032I-325002J-2D01*
G01*
X115650672Y-91963032D02*
G75*
G03*
X115975672Y-91638032I-2J325002D01*
G01*
X112950672Y-89013032D02*
G75*
G03*
X112625672Y-89338032I0J-325000D01*
G01*
X112625672Y-91638032D02*
G75*
G03*
X112950672Y-91963032I325000J0D01*
G01*
%TO.C,LED2*%
X115975000Y-53537500D02*
X115975000Y-51237500D01*
X115650000Y-50912500D02*
X112950000Y-50912500D01*
X112950000Y-53862500D02*
X115650000Y-53862500D01*
X112625000Y-51237500D02*
X112625000Y-53537500D01*
X115975000Y-51237500D02*
G75*
G03*
X115650000Y-50912500I-325002J-2D01*
G01*
X115650000Y-53862500D02*
G75*
G03*
X115975000Y-53537500I-2J325002D01*
G01*
X112950000Y-50912500D02*
G75*
G03*
X112625000Y-51237500I0J-325000D01*
G01*
X112625000Y-53537500D02*
G75*
G03*
X112950000Y-53862500I325000J0D01*
G01*
%TO.C,LED9*%
X112625000Y-70287502D02*
X112625000Y-72587502D01*
X112950000Y-72912502D02*
X115650000Y-72912502D01*
X115650000Y-69962502D02*
X112950000Y-69962502D01*
X115975000Y-72587502D02*
X115975000Y-70287502D01*
X112625000Y-72587502D02*
G75*
G03*
X112950000Y-72912502I325002J2D01*
G01*
X112950000Y-69962502D02*
G75*
G03*
X112625000Y-70287502I2J-325002D01*
G01*
X115650000Y-72912502D02*
G75*
G03*
X115975000Y-72587502I0J325000D01*
G01*
X115975000Y-70287502D02*
G75*
G03*
X115650000Y-69962502I-325000J0D01*
G01*
%TO.C,LED13*%
X135025000Y-91637502D02*
X135025000Y-89337502D01*
X134700000Y-89012502D02*
X132000000Y-89012502D01*
X132000000Y-91962502D02*
X134700000Y-91962502D01*
X131675000Y-89337502D02*
X131675000Y-91637502D01*
X135025000Y-89337502D02*
G75*
G03*
X134700000Y-89012502I-325002J-2D01*
G01*
X134700000Y-91962502D02*
G75*
G03*
X135025000Y-91637502I-2J325002D01*
G01*
X132000000Y-89012502D02*
G75*
G03*
X131675000Y-89337502I0J-325000D01*
G01*
X131675000Y-91637502D02*
G75*
G03*
X132000000Y-91962502I325000J0D01*
G01*
%TD*%
M02*
