M48
; DRILL file {KiCad 7.0.8} date Fri Dec  1 15:01:35 2023
; FORMAT={-:-/ absolute / metric / decimal}
; #@! TF.CreationDate,2023-12-01T15:01:35+01:00
; #@! TF.GenerationSoftware,Kicad,Pcbnew,7.0.8
; #@! TF.FileFunction,Plated,1,2,PTH
FMAT,2
METRIC
; #@! TA.AperFunction,Plated,PTH,ViaDrill
T1C0.300
; #@! TA.AperFunction,Plated,PTH,ViaDrill
T2C0.400
; #@! TA.AperFunction,Plated,PTH,ViaDrill
T3C0.500
; #@! TA.AperFunction,Plated,PTH,ComponentDrill
T4C1.100
%
G90
G05
T1
X93.465Y-58.391
X94.06Y-44.053
X94.06Y-76.498
X112.515Y-58.391
X113.11Y-44.053
X113.11Y-76.498
X131.565Y-58.341
X132.16Y-44.053
X132.16Y-76.498
X150.615Y-58.391
X151.21Y-44.053
X151.21Y-76.498
X169.665Y-58.391
X170.26Y-44.053
X170.26Y-76.498
T2
X89.0Y-73.819
X89.595Y-42.863
X92.274Y-88.404
X93.64Y-50.32
X95.25Y-92.571
X95.251Y-54.769
X95.251Y-69.205
X97.929Y-76.796
X98.227Y-73.522
X108.645Y-40.184
X111.175Y-88.404
X111.324Y-50.304
X114.301Y-54.769
X114.301Y-69.205
X114.301Y-92.572
X117.277Y-73.522
X122.337Y-51.495
X125.314Y-51.495
X127.695Y-40.184
X130.225Y-88.404
X130.374Y-50.304
X133.351Y-54.769
X133.351Y-92.572
X133.392Y-69.205
X136.327Y-73.522
X146.745Y-40.184
X149.275Y-88.404
X149.404Y-50.304
X152.401Y-54.769
X152.401Y-69.219
X152.401Y-92.572
X155.377Y-73.522
X165.796Y-40.184
X168.326Y-88.404
X168.474Y-50.304
X171.451Y-54.769
X171.451Y-69.205
X171.451Y-92.572
X174.428Y-73.522
T3
X88.51Y-77.881
X89.297Y-80.963
T4
X87.6Y-42.924
X87.6Y-45.464
X87.6Y-48.004
X87.6Y-50.544
X87.6Y-53.084
X87.6Y-55.624
X87.6Y-58.164
X87.6Y-60.704
X87.6Y-63.244
X87.6Y-65.784
X87.6Y-68.324
X87.6Y-70.864
X102.84Y-48.004
X102.84Y-50.544
X102.84Y-55.624
X102.84Y-58.164
X107.752Y-75.547
X107.752Y-78.087
T0
M30
