M48
; DRILL file {KiCad 7.0.8} date Fri Dec  1 15:01:35 2023
; FORMAT={-:-/ absolute / metric / decimal}
; #@! TF.CreationDate,2023-12-01T15:01:35+01:00
; #@! TF.GenerationSoftware,Kicad,Pcbnew,7.0.8
; #@! TF.FileFunction,NonPlated,1,2,NPTH
FMAT,2
METRIC
; #@! TA.AperFunction,NonPlated,NPTH,ComponentDrill
T1C0.900
; #@! TA.AperFunction,NonPlated,NPTH,ComponentDrill
T2C0.991
; #@! TA.AperFunction,NonPlated,NPTH,ComponentDrill
T3C1.702
; #@! TA.AperFunction,NonPlated,NPTH,ComponentDrill
T4C3.000
; #@! TA.AperFunction,NonPlated,NPTH,ComponentDrill
T5C3.429
%
G90
G05
T1
X86.75Y-75.891
X86.75Y-78.891
T2
X90.03Y-51.825
X90.03Y-70.875
X90.03Y-89.925
X109.08Y-51.825
X109.08Y-70.875
X109.08Y-89.925
X128.13Y-51.825
X128.13Y-70.875
X128.13Y-89.925
X147.18Y-51.825
X147.18Y-70.875
X147.18Y-89.925
X166.23Y-70.875
X166.23Y-89.925
X166.23Y-51.825
T3
X89.75Y-47.625
X89.75Y-66.675
X89.75Y-85.725
X100.75Y-47.625
X100.75Y-66.675
X100.75Y-85.725
X108.8Y-47.625
X108.8Y-66.675
X108.8Y-85.725
X119.8Y-47.625
X119.8Y-66.675
X119.8Y-85.725
X127.85Y-47.625
X127.85Y-66.675
X127.85Y-85.725
X138.85Y-47.625
X138.85Y-66.675
X138.85Y-85.725
X146.9Y-47.625
X146.9Y-66.675
X146.9Y-85.725
X157.9Y-47.625
X157.9Y-66.675
X157.9Y-85.725
X165.95Y-66.675
X165.95Y-85.725
X165.95Y-47.625
X176.95Y-66.675
X176.95Y-85.725
X176.95Y-47.625
T4
X95.25Y-41.675
X95.25Y-60.725
X95.25Y-79.775
X100.25Y-43.875
X100.25Y-62.925
X100.25Y-81.975
X105.525Y-50.006
X105.525Y-88.106
X114.3Y-41.675
X114.3Y-60.725
X114.3Y-79.775
X119.3Y-43.875
X119.3Y-62.925
X119.3Y-81.975
X133.35Y-41.675
X133.35Y-60.725
X133.35Y-79.775
X138.35Y-43.875
X138.35Y-62.925
X138.35Y-81.975
X152.4Y-41.675
X152.4Y-60.725
X152.4Y-79.775
X157.4Y-43.875
X157.4Y-62.925
X157.4Y-81.975
X161.175Y-50.006
X161.175Y-88.106
X171.45Y-60.725
X171.45Y-79.775
X171.45Y-41.675
X176.45Y-62.925
X176.45Y-81.975
X176.45Y-43.875
T5
X95.25Y-47.625
X95.25Y-66.675
X95.25Y-85.725
X114.3Y-47.625
X114.3Y-66.675
X114.3Y-85.725
X133.35Y-47.625
X133.35Y-66.675
X133.35Y-85.725
X152.4Y-47.625
X152.4Y-66.675
X152.4Y-85.725
X171.45Y-66.675
X171.45Y-85.725
X171.45Y-47.625
T0
M30
