%TF.GenerationSoftware,KiCad,Pcbnew,7.0.8*%
%TF.CreationDate,2023-12-01T15:01:34+01:00*%
%TF.ProjectId,briquet-rounded,62726971-7565-4742-9d72-6f756e646564,rev?*%
%TF.SameCoordinates,Original*%
%TF.FileFunction,Paste,Bot*%
%TF.FilePolarity,Positive*%
%FSLAX46Y46*%
G04 Gerber Fmt 4.6, Leading zero omitted, Abs format (unit mm)*
G04 Created by KiCad (PCBNEW 7.0.8) date 2023-12-01 15:01:34*
%MOMM*%
%LPD*%
G01*
G04 APERTURE LIST*
G04 Aperture macros list*
%AMRoundRect*
0 Rectangle with rounded corners*
0 $1 Rounding radius*
0 $2 $3 $4 $5 $6 $7 $8 $9 X,Y pos of 4 corners*
0 Add a 4 corners polygon primitive as box body*
4,1,4,$2,$3,$4,$5,$6,$7,$8,$9,$2,$3,0*
0 Add four circle primitives for the rounded corners*
1,1,$1+$1,$2,$3*
1,1,$1+$1,$4,$5*
1,1,$1+$1,$6,$7*
1,1,$1+$1,$8,$9*
0 Add four rect primitives between the rounded corners*
20,1,$1+$1,$2,$3,$4,$5,0*
20,1,$1+$1,$4,$5,$6,$7,0*
20,1,$1+$1,$6,$7,$8,$9,0*
20,1,$1+$1,$8,$9,$2,$3,0*%
G04 Aperture macros list end*
%ADD10R,1.700000X0.820000*%
%ADD11RoundRect,0.205000X0.645000X0.205000X-0.645000X0.205000X-0.645000X-0.205000X0.645000X-0.205000X0*%
%ADD12RoundRect,0.650000X-0.650000X-0.650000X0.650000X-0.650000X0.650000X0.650000X-0.650000X0.650000X0*%
%ADD13RoundRect,0.225000X-0.225000X-0.375000X0.225000X-0.375000X0.225000X0.375000X-0.225000X0.375000X0*%
%ADD14RoundRect,0.140000X0.140000X0.170000X-0.140000X0.170000X-0.140000X-0.170000X0.140000X-0.170000X0*%
%ADD15RoundRect,0.140000X-0.140000X-0.170000X0.140000X-0.170000X0.140000X0.170000X-0.140000X0.170000X0*%
%ADD16RoundRect,0.205000X-0.645000X-0.205000X0.645000X-0.205000X0.645000X0.205000X-0.645000X0.205000X0*%
%ADD17RoundRect,0.200000X-0.800000X0.200000X-0.800000X-0.200000X0.800000X-0.200000X0.800000X0.200000X0*%
%ADD18RoundRect,0.200000X0.800000X-0.200000X0.800000X0.200000X-0.800000X0.200000X-0.800000X-0.200000X0*%
%ADD19R,0.800000X1.000000*%
%ADD20R,1.500000X0.700000*%
G04 APERTURE END LIST*
D10*
%TO.C,LED14*%
X154950000Y-91237502D03*
X154950000Y-89737502D03*
D11*
X149850000Y-89737502D03*
D10*
X149850000Y-91237502D03*
%TD*%
D12*
%TO.C,CHOC11*%
X103525000Y-81975000D03*
X91975000Y-79775000D03*
%TD*%
D10*
%TO.C,LED5*%
X174000000Y-53137500D03*
X174000000Y-51637500D03*
D11*
X168900000Y-51637500D03*
D10*
X168900000Y-53137500D03*
%TD*%
D13*
%TO.C,D6*%
X119199372Y-77986396D03*
X122499372Y-77986396D03*
%TD*%
D14*
%TO.C,C7*%
X112730579Y-69205485D03*
X111770579Y-69205485D03*
%TD*%
D12*
%TO.C,CHOC13*%
X141625001Y-81975001D03*
X130075001Y-79775001D03*
%TD*%
D10*
%TO.C,LED15*%
X174000000Y-91237502D03*
X174000000Y-89737502D03*
D11*
X168900000Y-89737502D03*
D10*
X168900000Y-91237502D03*
%TD*%
D15*
%TO.C,C1*%
X96820653Y-54769072D03*
X97780653Y-54769072D03*
%TD*%
D13*
%TO.C,D13*%
X176150000Y-39886172D03*
X179450000Y-39886172D03*
%TD*%
D12*
%TO.C,CHOC8*%
X141625001Y-62925001D03*
X130075001Y-60725001D03*
%TD*%
D10*
%TO.C,LED1*%
X97800000Y-53137500D03*
X97800000Y-51637500D03*
D11*
X92700000Y-51637500D03*
D10*
X92700000Y-53137500D03*
%TD*%
%TO.C,LED11*%
X97800560Y-91238032D03*
X97800560Y-89738032D03*
D11*
X92700560Y-89738032D03*
D10*
X92700560Y-91238032D03*
%TD*%
D15*
%TO.C,C12*%
X115870765Y-92869296D03*
X116830765Y-92869296D03*
%TD*%
D13*
%TO.C,D2*%
X104911564Y-58936284D03*
X108211564Y-58936284D03*
%TD*%
D10*
%TO.C,LED7*%
X149850000Y-70687502D03*
X149850000Y-72187502D03*
D16*
X154950000Y-72187502D03*
D10*
X154950000Y-70687502D03*
%TD*%
D17*
%TO.C,RST1*%
X123825728Y-47013570D03*
D18*
X123825728Y-51213570D03*
%TD*%
D13*
%TO.C,D11*%
X157299372Y-58936284D03*
X160599372Y-58936284D03*
%TD*%
D12*
%TO.C,CHOC1*%
X103525000Y-43874998D03*
X91975000Y-41674998D03*
%TD*%
D13*
%TO.C,D5*%
X119199148Y-58936284D03*
X122499148Y-58936284D03*
%TD*%
D15*
%TO.C,C11*%
X96820093Y-92868766D03*
X97780093Y-92868766D03*
%TD*%
%TO.C,C4*%
X153970989Y-54769072D03*
X154930989Y-54769072D03*
%TD*%
D13*
%TO.C,D7*%
X138249372Y-39886172D03*
X141549372Y-39886172D03*
%TD*%
D10*
%TO.C,LED6*%
X168900000Y-70687502D03*
X168900000Y-72187502D03*
D16*
X174000000Y-72187502D03*
D10*
X174000000Y-70687502D03*
%TD*%
D12*
%TO.C,CHOC9*%
X160675000Y-62925000D03*
X149125000Y-60725000D03*
%TD*%
%TO.C,CHOC5*%
X179725001Y-43874999D03*
X168175001Y-41674999D03*
%TD*%
D13*
%TO.C,D3*%
X100149372Y-77986396D03*
X103449372Y-77986396D03*
%TD*%
D10*
%TO.C,LED10*%
X92700000Y-70687502D03*
X92700000Y-72187502D03*
D16*
X97800000Y-72187502D03*
D10*
X97800000Y-70687502D03*
%TD*%
D15*
%TO.C,C3*%
X134920877Y-54769072D03*
X135880877Y-54769072D03*
%TD*%
D12*
%TO.C,CHOC3*%
X141625000Y-43874998D03*
X130075000Y-41674998D03*
%TD*%
D10*
%TO.C,LED4*%
X154950000Y-53137500D03*
X154950000Y-51637500D03*
D11*
X149850000Y-51637500D03*
D10*
X149850000Y-53137500D03*
%TD*%
%TO.C,LED8*%
X130800000Y-70687502D03*
X130800000Y-72187502D03*
D16*
X135900000Y-72187502D03*
D10*
X135900000Y-70687502D03*
%TD*%
%TO.C,LED3*%
X135900000Y-53137500D03*
X135900000Y-51637500D03*
D11*
X130800000Y-51637500D03*
D10*
X130800000Y-53137500D03*
%TD*%
D12*
%TO.C,CHOC10*%
X179725000Y-62925000D03*
X168175000Y-60725000D03*
%TD*%
D10*
%TO.C,LED12*%
X116850672Y-91238032D03*
X116850672Y-89738032D03*
D11*
X111750672Y-89738032D03*
D10*
X111750672Y-91238032D03*
%TD*%
%TO.C,LED2*%
X116850000Y-53137500D03*
X116850000Y-51637500D03*
D11*
X111750000Y-51637500D03*
D10*
X111750000Y-53137500D03*
%TD*%
D13*
%TO.C,D9*%
X138249372Y-77986396D03*
X141549372Y-77986396D03*
%TD*%
D15*
%TO.C,C2*%
X115870765Y-54769072D03*
X116830765Y-54769072D03*
%TD*%
D12*
%TO.C,CHOC2*%
X122575000Y-43874998D03*
X111025000Y-41674998D03*
%TD*%
D13*
%TO.C,D15*%
X176349484Y-77986396D03*
X179649484Y-77986396D03*
%TD*%
D14*
%TO.C,C8*%
X131780691Y-69205485D03*
X130820691Y-69205485D03*
%TD*%
D12*
%TO.C,CHOC15*%
X179725000Y-81975000D03*
X168175000Y-79775000D03*
%TD*%
D15*
%TO.C,C14*%
X153970989Y-92869296D03*
X154930989Y-92869296D03*
%TD*%
D12*
%TO.C,CHOC4*%
X160675000Y-43874998D03*
X149125000Y-41674998D03*
%TD*%
D19*
%TO.C,SW13*%
X87860000Y-81041080D03*
X85650000Y-81041080D03*
X87860000Y-73741080D03*
X85650000Y-73741080D03*
D20*
X88510000Y-79641080D03*
X88510000Y-76641080D03*
X88510000Y-75141080D03*
%TD*%
D14*
%TO.C,C9*%
X150830803Y-69219079D03*
X149870803Y-69219079D03*
%TD*%
D13*
%TO.C,D10*%
X157299372Y-39886172D03*
X160599372Y-39886172D03*
%TD*%
D12*
%TO.C,CHOC7*%
X122575000Y-62925000D03*
X111025000Y-60725000D03*
%TD*%
D10*
%TO.C,LED9*%
X111750000Y-70687502D03*
X111750000Y-72187502D03*
D16*
X116850000Y-72187502D03*
D10*
X116850000Y-70687502D03*
%TD*%
D15*
%TO.C,C15*%
X173021101Y-92869296D03*
X173981101Y-92869296D03*
%TD*%
D10*
%TO.C,LED13*%
X135900000Y-91237502D03*
X135900000Y-89737502D03*
D11*
X130800000Y-89737502D03*
D10*
X130800000Y-91237502D03*
%TD*%
D14*
%TO.C,C10*%
X169880915Y-69205485D03*
X168920915Y-69205485D03*
%TD*%
D15*
%TO.C,C5*%
X173021101Y-54769072D03*
X173981101Y-54769072D03*
%TD*%
D13*
%TO.C,D12*%
X157299372Y-77986396D03*
X160599372Y-77986396D03*
%TD*%
D12*
%TO.C,CHOC6*%
X103525000Y-62925000D03*
X91975000Y-60725000D03*
%TD*%
%TO.C,CHOC14*%
X160675001Y-81975001D03*
X149125001Y-79775001D03*
%TD*%
D15*
%TO.C,C13*%
X134920877Y-92869296D03*
X135880877Y-92869296D03*
%TD*%
D13*
%TO.C,D4*%
X119199372Y-39886172D03*
X122499372Y-39886172D03*
%TD*%
%TO.C,D8*%
X138249260Y-58936284D03*
X141549260Y-58936284D03*
%TD*%
%TO.C,D1*%
X100149372Y-39886172D03*
X103449372Y-39886172D03*
%TD*%
D14*
%TO.C,C6*%
X93680467Y-69205485D03*
X92720467Y-69205485D03*
%TD*%
D12*
%TO.C,CHOC12*%
X122575000Y-81975000D03*
X111025000Y-79775000D03*
%TD*%
D13*
%TO.C,D14*%
X176349484Y-58936284D03*
X179649484Y-58936284D03*
%TD*%
M02*
